<mxfile host="app.diagrams.net" agent="Mozilla/5.0 (Windows NT 10.0; Win64; x64) AppleWebKit/537.36 (KHTML, like Gecko) Chrome/136.0.0.0 Safari/537.36" version="26.3.0">
  <diagram name="Page-1" id="cWBt8V4PLUJSiyqFKago">
    <mxGraphModel dx="2630" dy="1677" grid="0" gridSize="10" guides="1" tooltips="1" connect="1" arrows="1" fold="1" page="0" pageScale="1" pageWidth="850" pageHeight="1100" math="0" shadow="0">
      <root>
        <mxCell id="0" />
        <mxCell id="1" parent="0" />
        <mxCell id="d0AiPpgVXNXdEPE5czj4-30" value="&amp;lt;&amp;lt;infrastructure&amp;gt;&amp;gt;Usere DB" style="shape=module;align=left;spacingLeft=20;align=center;verticalAlign=top;whiteSpace=wrap;html=1;" vertex="1" parent="1">
          <mxGeometry x="582" y="-124" width="209" height="76" as="geometry" />
        </mxCell>
        <mxCell id="d0AiPpgVXNXdEPE5czj4-31" value="&amp;lt;&amp;lt;infrastructure&amp;gt;&amp;gt;TipContent DB" style="shape=module;align=left;spacingLeft=20;align=center;verticalAlign=top;whiteSpace=wrap;html=1;" vertex="1" parent="1">
          <mxGeometry x="395" y="-516" width="234" height="57" as="geometry" />
        </mxCell>
        <mxCell id="d0AiPpgVXNXdEPE5czj4-32" value="&lt;p&gt;&amp;lt;&amp;lt;infrastructure&amp;gt;&amp;gt;WorkoutPlan DB&lt;/p&gt;" style="shape=module;align=left;spacingLeft=20;align=center;verticalAlign=top;whiteSpace=wrap;html=1;" vertex="1" parent="1">
          <mxGeometry x="567" y="-328" width="224" height="75" as="geometry" />
        </mxCell>
        <mxCell id="d0AiPpgVXNXdEPE5czj4-33" value="&amp;lt;&amp;lt;infrastructure&amp;gt;&amp;gt;DietPlane DB" style="shape=module;align=left;spacingLeft=20;align=center;verticalAlign=top;whiteSpace=wrap;html=1;" vertex="1" parent="1">
          <mxGeometry x="570" y="109" width="218" height="52" as="geometry" />
        </mxCell>
        <mxCell id="d0AiPpgVXNXdEPE5czj4-34" value="&lt;p&gt;&amp;lt;&amp;lt;Component&amp;gt;&amp;gt;&lt;/p&gt;&lt;p&gt;Workou Plan Generator&lt;/p&gt;&lt;p&gt;&lt;br class=&quot;soft-break&quot;&gt;&lt;/p&gt;" style="shape=module;align=left;spacingLeft=20;align=center;verticalAlign=top;whiteSpace=wrap;html=1;" vertex="1" parent="1">
          <mxGeometry x="121" y="-328" width="183" height="99" as="geometry" />
        </mxCell>
        <mxCell id="d0AiPpgVXNXdEPE5czj4-35" value="&lt;p&gt;&amp;lt;&amp;lt;Component&amp;gt;&amp;gt;&lt;/p&gt;&lt;p&gt;Diet Plan Generator&lt;/p&gt;&lt;p&gt;&lt;br class=&quot;soft-break&quot;&gt;&lt;br class=&quot;soft-break&quot;&gt;&lt;/p&gt;" style="shape=module;align=left;spacingLeft=20;align=center;verticalAlign=top;whiteSpace=wrap;html=1;" vertex="1" parent="1">
          <mxGeometry x="149" y="65" width="155" height="86" as="geometry" />
        </mxCell>
        <mxCell id="d0AiPpgVXNXdEPE5czj4-36" value="&lt;p&gt;&amp;lt;&amp;lt;Component&amp;gt;&amp;gt;&lt;/p&gt;&lt;p&gt;Content Delivery System&lt;/p&gt;&lt;p&gt;&lt;br class=&quot;soft-break&quot;&gt;&lt;/p&gt;" style="shape=module;align=left;spacingLeft=20;align=center;verticalAlign=top;whiteSpace=wrap;html=1;" vertex="1" parent="1">
          <mxGeometry x="-9" y="-520" width="172" height="77" as="geometry" />
        </mxCell>
        <mxCell id="d0AiPpgVXNXdEPE5czj4-37" value="&lt;p&gt;&amp;lt;&amp;lt;Component&amp;gt;&amp;gt;&lt;/p&gt;&lt;p&gt;User Profile Manager&lt;/p&gt;&lt;p&gt;&lt;br class=&quot;soft-break&quot;&gt;&lt;br&gt;&lt;/p&gt;" style="shape=module;align=left;spacingLeft=20;align=center;verticalAlign=top;whiteSpace=wrap;html=1;" vertex="1" parent="1">
          <mxGeometry x="-351" y="-133" width="161" height="85" as="geometry" />
        </mxCell>
        <mxCell id="d0AiPpgVXNXdEPE5czj4-38" value="&lt;p&gt;&amp;lt;&amp;lt;Component&amp;gt;&amp;gt;&lt;/p&gt;&lt;p&gt;Recommendation Engine&lt;/p&gt;&lt;p&gt;&lt;br class=&quot;soft-break&quot;&gt;&lt;/p&gt;" style="shape=module;align=left;spacingLeft=20;align=center;verticalAlign=top;whiteSpace=wrap;html=1;" vertex="1" parent="1">
          <mxGeometry x="-343" y="50" width="166.5" height="86" as="geometry" />
        </mxCell>
        <mxCell id="d0AiPpgVXNXdEPE5czj4-39" value="&lt;p&gt;&amp;lt;&amp;lt;Component&amp;gt;&amp;gt;&lt;/p&gt;&lt;p&gt;Progress Tracker&lt;/p&gt;&lt;p&gt;&lt;br class=&quot;soft-break&quot;&gt;&lt;br class=&quot;soft-break&quot;&gt;&lt;/p&gt;" style="shape=module;align=left;spacingLeft=20;align=center;verticalAlign=top;whiteSpace=wrap;html=1;" vertex="1" parent="1">
          <mxGeometry x="-357" y="-301.5" width="170" height="86" as="geometry" />
        </mxCell>
        <mxCell id="d0AiPpgVXNXdEPE5czj4-40" value="&lt;p&gt;&amp;lt;&amp;lt;UI&amp;gt;&amp;gt;&lt;/p&gt;&lt;p&gt;HealthInputScreen&lt;/p&gt;" style="shape=module;align=left;spacingLeft=20;align=center;verticalAlign=top;whiteSpace=wrap;html=1;" vertex="1" parent="1">
          <mxGeometry x="-724" y="-127" width="157" height="76" as="geometry" />
        </mxCell>
        <mxCell id="d0AiPpgVXNXdEPE5czj4-41" value="&lt;p&gt;&amp;lt;&amp;lt;UI&amp;gt;&amp;gt;&lt;/p&gt;&lt;p&gt;Progress Tracker&lt;/p&gt;" style="shape=module;align=left;spacingLeft=20;align=center;verticalAlign=top;whiteSpace=wrap;html=1;" vertex="1" parent="1">
          <mxGeometry x="-707" y="-304.5" width="140" height="89" as="geometry" />
        </mxCell>
        <mxCell id="d0AiPpgVXNXdEPE5czj4-42" value="&lt;p&gt;&amp;lt;&amp;lt;UI&amp;gt;&amp;gt;&lt;/p&gt;&lt;p&gt;Log in&lt;/p&gt;" style="shape=module;align=left;spacingLeft=20;align=center;verticalAlign=top;whiteSpace=wrap;html=1;" vertex="1" parent="1">
          <mxGeometry x="-690" y="-507" width="123" height="64" as="geometry" />
        </mxCell>
        <mxCell id="d0AiPpgVXNXdEPE5czj4-44" value="&lt;p&gt;&amp;lt;&amp;lt;infrastructure&amp;gt;&amp;gt;&lt;span style=&quot;background-color: transparent; color: light-dark(rgb(0, 0, 0), rgb(255, 255, 255));&quot;&gt;Authentication services&lt;/span&gt;&lt;/p&gt;" style="shape=module;align=left;spacingLeft=20;align=center;verticalAlign=top;whiteSpace=wrap;html=1;" vertex="1" parent="1">
          <mxGeometry x="-380" y="-520" width="216" height="68" as="geometry" />
        </mxCell>
        <mxCell id="d0AiPpgVXNXdEPE5czj4-62" value="" style="ellipse;whiteSpace=wrap;html=1;align=center;aspect=fixed;fillColor=none;strokeColor=none;resizable=0;perimeter=centerPerimeter;rotatable=0;allowArrows=0;points=[];outlineConnect=1;" vertex="1" parent="1">
          <mxGeometry x="-79" y="-298" width="10" height="10" as="geometry" />
        </mxCell>
        <mxCell id="d0AiPpgVXNXdEPE5czj4-65" value="" style="ellipse;whiteSpace=wrap;html=1;align=center;aspect=fixed;fillColor=none;strokeColor=none;resizable=0;perimeter=centerPerimeter;rotatable=0;allowArrows=0;points=[];outlineConnect=1;" vertex="1" parent="1">
          <mxGeometry x="-407" y="-123" width="10" height="10" as="geometry" />
        </mxCell>
        <mxCell id="d0AiPpgVXNXdEPE5czj4-67" value="" style="ellipse;whiteSpace=wrap;html=1;align=center;aspect=fixed;fillColor=none;strokeColor=none;resizable=0;perimeter=centerPerimeter;rotatable=0;allowArrows=0;points=[];outlineConnect=1;" vertex="1" parent="1">
          <mxGeometry x="-459" y="-136" width="10" height="10" as="geometry" />
        </mxCell>
        <mxCell id="d0AiPpgVXNXdEPE5czj4-70" value="" style="ellipse;whiteSpace=wrap;html=1;align=center;aspect=fixed;fillColor=none;strokeColor=none;resizable=0;perimeter=centerPerimeter;rotatable=0;allowArrows=0;points=[];outlineConnect=1;" vertex="1" parent="1">
          <mxGeometry x="-26" y="151" width="10" height="10" as="geometry" />
        </mxCell>
        <mxCell id="d0AiPpgVXNXdEPE5czj4-74" value="" style="ellipse;whiteSpace=wrap;html=1;align=center;aspect=fixed;fillColor=none;strokeColor=none;resizable=0;perimeter=centerPerimeter;rotatable=0;allowArrows=0;points=[];outlineConnect=1;" vertex="1" parent="1">
          <mxGeometry x="261" y="4" width="10" height="10" as="geometry" />
        </mxCell>
        <mxCell id="d0AiPpgVXNXdEPE5czj4-79" value="" style="ellipse;whiteSpace=wrap;html=1;align=center;aspect=fixed;fillColor=none;strokeColor=none;resizable=0;perimeter=centerPerimeter;rotatable=0;allowArrows=0;points=[];outlineConnect=1;" vertex="1" parent="1">
          <mxGeometry x="276" y="-202" width="10" height="10" as="geometry" />
        </mxCell>
        <mxCell id="d0AiPpgVXNXdEPE5czj4-81" value="&lt;p&gt;&amp;lt;&amp;lt;Component&amp;gt;&amp;gt;&lt;/p&gt;&lt;p&gt;User Profile Manager&lt;/p&gt;&lt;p&gt;&lt;br class=&quot;soft-break&quot;&gt;&lt;br&gt;&lt;/p&gt;" style="shape=module;align=left;spacingLeft=20;align=center;verticalAlign=top;whiteSpace=wrap;html=1;" vertex="1" parent="1">
          <mxGeometry x="-347" y="196" width="170" height="85" as="geometry" />
        </mxCell>
        <mxCell id="d0AiPpgVXNXdEPE5czj4-82" value="" style="rounded=0;orthogonalLoop=1;jettySize=auto;html=1;endArrow=halfCircle;endFill=0;endSize=6;strokeWidth=1;sketch=0;fontSize=12;curved=1;exitX=0;exitY=1;exitDx=10;exitDy=0;exitPerimeter=0;" edge="1" target="d0AiPpgVXNXdEPE5czj4-83" parent="1" source="d0AiPpgVXNXdEPE5czj4-35">
          <mxGeometry relative="1" as="geometry">
            <mxPoint x="36" y="125" as="sourcePoint" />
          </mxGeometry>
        </mxCell>
        <mxCell id="d0AiPpgVXNXdEPE5czj4-86" value="" style="rounded=0;orthogonalLoop=1;jettySize=auto;html=1;endArrow=halfCircle;endFill=0;endSize=6;strokeWidth=1;sketch=0;fontSize=12;curved=1;exitX=0.974;exitY=0.733;exitDx=0;exitDy=0;exitPerimeter=0;" edge="1" target="d0AiPpgVXNXdEPE5czj4-88" parent="1" source="d0AiPpgVXNXdEPE5czj4-35">
          <mxGeometry relative="1" as="geometry">
            <mxPoint x="287" y="43" as="sourcePoint" />
          </mxGeometry>
        </mxCell>
        <mxCell id="d0AiPpgVXNXdEPE5czj4-87" value="" style="rounded=0;orthogonalLoop=1;jettySize=auto;html=1;endArrow=oval;endFill=0;sketch=0;sourcePerimeterSpacing=0;targetPerimeterSpacing=0;endSize=10;fontSize=12;curved=1;exitX=0.013;exitY=0.473;exitDx=0;exitDy=0;exitPerimeter=0;" edge="1" target="d0AiPpgVXNXdEPE5czj4-88" parent="1" source="d0AiPpgVXNXdEPE5czj4-33">
          <mxGeometry relative="1" as="geometry">
            <mxPoint x="247" y="43" as="sourcePoint" />
          </mxGeometry>
        </mxCell>
        <mxCell id="d0AiPpgVXNXdEPE5czj4-88" value="" style="ellipse;whiteSpace=wrap;html=1;align=center;aspect=fixed;fillColor=none;strokeColor=none;resizable=0;perimeter=centerPerimeter;rotatable=0;allowArrows=0;points=[];outlineConnect=1;" vertex="1" parent="1">
          <mxGeometry x="435" y="126" width="10" height="10" as="geometry" />
        </mxCell>
        <mxCell id="d0AiPpgVXNXdEPE5czj4-89" value="" style="rounded=0;orthogonalLoop=1;jettySize=auto;html=1;endArrow=halfCircle;endFill=0;endSize=6;strokeWidth=1;sketch=0;fontSize=12;curved=1;exitX=0.75;exitY=0;exitDx=0;exitDy=0;" edge="1" target="d0AiPpgVXNXdEPE5czj4-91" parent="1" source="d0AiPpgVXNXdEPE5czj4-38">
          <mxGeometry relative="1" as="geometry">
            <mxPoint x="-41" y="-162" as="sourcePoint" />
          </mxGeometry>
        </mxCell>
        <mxCell id="d0AiPpgVXNXdEPE5czj4-92" value="" style="rounded=0;orthogonalLoop=1;jettySize=auto;html=1;endArrow=halfCircle;endFill=0;endSize=6;strokeWidth=1;sketch=0;fontSize=12;curved=1;exitX=0.983;exitY=0.429;exitDx=0;exitDy=0;exitPerimeter=0;" edge="1" target="d0AiPpgVXNXdEPE5czj4-94" parent="1" source="d0AiPpgVXNXdEPE5czj4-36">
          <mxGeometry relative="1" as="geometry">
            <mxPoint x="36" y="-510" as="sourcePoint" />
          </mxGeometry>
        </mxCell>
        <mxCell id="d0AiPpgVXNXdEPE5czj4-93" value="" style="rounded=0;orthogonalLoop=1;jettySize=auto;html=1;endArrow=oval;endFill=0;sketch=0;sourcePerimeterSpacing=0;targetPerimeterSpacing=0;endSize=10;fontSize=12;curved=1;exitX=0.03;exitY=0.479;exitDx=0;exitDy=0;exitPerimeter=0;" edge="1" target="d0AiPpgVXNXdEPE5czj4-94" parent="1" source="d0AiPpgVXNXdEPE5czj4-31">
          <mxGeometry relative="1" as="geometry">
            <mxPoint x="-4" y="-510" as="sourcePoint" />
          </mxGeometry>
        </mxCell>
        <mxCell id="d0AiPpgVXNXdEPE5czj4-94" value="" style="ellipse;whiteSpace=wrap;html=1;align=center;aspect=fixed;fillColor=none;strokeColor=none;resizable=0;perimeter=centerPerimeter;rotatable=0;allowArrows=0;points=[];outlineConnect=1;" vertex="1" parent="1">
          <mxGeometry x="286" y="-490" width="10" height="10" as="geometry" />
        </mxCell>
        <mxCell id="d0AiPpgVXNXdEPE5czj4-95" value="" style="rounded=0;orthogonalLoop=1;jettySize=auto;html=1;endArrow=halfCircle;endFill=0;endSize=6;strokeWidth=1;sketch=0;fontSize=12;curved=1;exitX=0.988;exitY=0.441;exitDx=0;exitDy=0;exitPerimeter=0;" edge="1" target="d0AiPpgVXNXdEPE5czj4-97" parent="1" source="d0AiPpgVXNXdEPE5czj4-39">
          <mxGeometry relative="1" as="geometry">
            <mxPoint x="36" y="-298" as="sourcePoint" />
          </mxGeometry>
        </mxCell>
        <mxCell id="d0AiPpgVXNXdEPE5czj4-96" value="" style="rounded=0;orthogonalLoop=1;jettySize=auto;html=1;endArrow=oval;endFill=0;sketch=0;sourcePerimeterSpacing=0;targetPerimeterSpacing=0;endSize=10;fontSize=12;curved=1;exitX=0.033;exitY=0.305;exitDx=0;exitDy=0;exitPerimeter=0;" edge="1" target="d0AiPpgVXNXdEPE5czj4-97" parent="1" source="d0AiPpgVXNXdEPE5czj4-30">
          <mxGeometry relative="1" as="geometry">
            <mxPoint x="-4" y="-298" as="sourcePoint" />
            <Array as="points">
              <mxPoint x="373" y="-99" />
            </Array>
          </mxGeometry>
        </mxCell>
        <mxCell id="d0AiPpgVXNXdEPE5czj4-97" value="" style="ellipse;whiteSpace=wrap;html=1;align=center;aspect=fixed;fillColor=none;strokeColor=none;resizable=0;perimeter=centerPerimeter;rotatable=0;allowArrows=0;points=[];outlineConnect=1;" vertex="1" parent="1">
          <mxGeometry x="169" y="-99" width="10" height="10" as="geometry" />
        </mxCell>
        <mxCell id="d0AiPpgVXNXdEPE5czj4-98" value="" style="rounded=0;orthogonalLoop=1;jettySize=auto;html=1;endArrow=halfCircle;endFill=0;endSize=6;strokeWidth=1;sketch=0;fontSize=12;curved=1;exitX=1;exitY=0.5;exitDx=0;exitDy=0;entryX=0.095;entryY=1.195;entryDx=0;entryDy=0;entryPerimeter=0;" edge="1" target="d0AiPpgVXNXdEPE5czj4-100" parent="1" source="d0AiPpgVXNXdEPE5czj4-38">
          <mxGeometry relative="1" as="geometry">
            <mxPoint x="-237" y="62" as="sourcePoint" />
          </mxGeometry>
        </mxCell>
        <mxCell id="d0AiPpgVXNXdEPE5czj4-99" value="" style="rounded=0;orthogonalLoop=1;jettySize=auto;html=1;endArrow=oval;endFill=0;sketch=0;sourcePerimeterSpacing=0;targetPerimeterSpacing=0;endSize=10;fontSize=12;curved=1;exitX=0.062;exitY=0.36;exitDx=0;exitDy=0;exitPerimeter=0;" edge="1" target="d0AiPpgVXNXdEPE5czj4-100" parent="1" source="d0AiPpgVXNXdEPE5czj4-35">
          <mxGeometry relative="1" as="geometry">
            <mxPoint x="190" y="-115" as="sourcePoint" />
          </mxGeometry>
        </mxCell>
        <mxCell id="d0AiPpgVXNXdEPE5czj4-100" value="" style="ellipse;whiteSpace=wrap;html=1;align=center;aspect=fixed;fillColor=none;strokeColor=none;resizable=0;perimeter=centerPerimeter;rotatable=0;allowArrows=0;points=[];outlineConnect=1;" vertex="1" parent="1">
          <mxGeometry x="-16" y="85" width="10" height="10" as="geometry" />
        </mxCell>
        <mxCell id="d0AiPpgVXNXdEPE5czj4-104" value="" style="rounded=0;orthogonalLoop=1;jettySize=auto;html=1;endArrow=halfCircle;endFill=0;endSize=6;strokeWidth=1;sketch=0;fontSize=12;curved=1;exitX=1;exitY=0.5;exitDx=0;exitDy=0;" edge="1" target="d0AiPpgVXNXdEPE5czj4-106" parent="1" source="d0AiPpgVXNXdEPE5czj4-34">
          <mxGeometry relative="1" as="geometry">
            <mxPoint x="441" y="-206" as="sourcePoint" />
          </mxGeometry>
        </mxCell>
        <mxCell id="d0AiPpgVXNXdEPE5czj4-107" value="" style="rounded=0;orthogonalLoop=1;jettySize=auto;html=1;endArrow=oval;endFill=0;sketch=0;sourcePerimeterSpacing=0;targetPerimeterSpacing=0;endSize=10;fontSize=12;curved=1;exitX=0.032;exitY=0.595;exitDx=0;exitDy=0;exitPerimeter=0;" edge="1" parent="1" source="d0AiPpgVXNXdEPE5czj4-32" target="d0AiPpgVXNXdEPE5czj4-106">
          <mxGeometry relative="1" as="geometry">
            <mxPoint x="476" y="-272" as="sourcePoint" />
            <mxPoint x="421" y="-206" as="targetPoint" />
          </mxGeometry>
        </mxCell>
        <mxCell id="d0AiPpgVXNXdEPE5czj4-106" value="" style="ellipse;whiteSpace=wrap;html=1;align=center;aspect=fixed;fillColor=none;strokeColor=none;resizable=0;perimeter=centerPerimeter;rotatable=0;allowArrows=0;points=[];outlineConnect=1;" vertex="1" parent="1">
          <mxGeometry x="419" y="-283.5" width="10" height="10" as="geometry" />
        </mxCell>
        <mxCell id="d0AiPpgVXNXdEPE5czj4-111" value="" style="rounded=0;orthogonalLoop=1;jettySize=auto;html=1;endArrow=halfCircle;endFill=0;endSize=6;strokeWidth=1;sketch=0;fontSize=12;curved=1;exitX=1;exitY=0.5;exitDx=0;exitDy=0;" edge="1" target="d0AiPpgVXNXdEPE5czj4-113" parent="1" source="d0AiPpgVXNXdEPE5czj4-40">
          <mxGeometry relative="1" as="geometry">
            <mxPoint x="-441" y="-75" as="sourcePoint" />
          </mxGeometry>
        </mxCell>
        <mxCell id="d0AiPpgVXNXdEPE5czj4-112" value="" style="rounded=0;orthogonalLoop=1;jettySize=auto;html=1;endArrow=oval;endFill=0;sketch=0;sourcePerimeterSpacing=0;targetPerimeterSpacing=0;endSize=10;fontSize=12;curved=1;" edge="1" target="d0AiPpgVXNXdEPE5czj4-113" parent="1">
          <mxGeometry relative="1" as="geometry">
            <mxPoint x="-334" y="-86" as="sourcePoint" />
          </mxGeometry>
        </mxCell>
        <mxCell id="d0AiPpgVXNXdEPE5czj4-113" value="" style="ellipse;whiteSpace=wrap;html=1;align=center;aspect=fixed;fillColor=none;strokeColor=none;resizable=0;perimeter=centerPerimeter;rotatable=0;allowArrows=0;points=[];outlineConnect=1;" vertex="1" parent="1">
          <mxGeometry x="-457" y="-94" width="10" height="10" as="geometry" />
        </mxCell>
        <mxCell id="d0AiPpgVXNXdEPE5czj4-114" value="" style="rounded=0;orthogonalLoop=1;jettySize=auto;html=1;endArrow=halfCircle;endFill=0;endSize=6;strokeWidth=1;sketch=0;fontSize=12;curved=1;exitX=0.25;exitY=1;exitDx=0;exitDy=0;" edge="1" target="d0AiPpgVXNXdEPE5czj4-116" parent="1" source="d0AiPpgVXNXdEPE5czj4-34">
          <mxGeometry relative="1" as="geometry">
            <mxPoint x="14" y="-102" as="sourcePoint" />
          </mxGeometry>
        </mxCell>
        <mxCell id="d0AiPpgVXNXdEPE5czj4-115" value="" style="rounded=0;orthogonalLoop=1;jettySize=auto;html=1;endArrow=oval;endFill=0;sketch=0;sourcePerimeterSpacing=0;targetPerimeterSpacing=0;endSize=10;fontSize=12;curved=1;exitX=1;exitY=0.5;exitDx=0;exitDy=0;" edge="1" target="d0AiPpgVXNXdEPE5czj4-116" parent="1" source="d0AiPpgVXNXdEPE5czj4-37">
          <mxGeometry relative="1" as="geometry">
            <mxPoint x="-26" y="-102" as="sourcePoint" />
          </mxGeometry>
        </mxCell>
        <mxCell id="d0AiPpgVXNXdEPE5czj4-116" value="" style="ellipse;whiteSpace=wrap;html=1;align=center;aspect=fixed;fillColor=none;strokeColor=none;resizable=0;perimeter=centerPerimeter;rotatable=0;allowArrows=0;points=[];outlineConnect=1;" vertex="1" parent="1">
          <mxGeometry x="-19" y="-99" width="10" height="10" as="geometry" />
        </mxCell>
        <mxCell id="d0AiPpgVXNXdEPE5czj4-117" value="" style="rounded=0;orthogonalLoop=1;jettySize=auto;html=1;endArrow=oval;endFill=0;sketch=0;sourcePerimeterSpacing=0;targetPerimeterSpacing=0;endSize=10;fontSize=12;curved=1;exitX=0;exitY=0.5;exitDx=10;exitDy=0;exitPerimeter=0;" edge="1" parent="1" source="d0AiPpgVXNXdEPE5czj4-34" target="d0AiPpgVXNXdEPE5czj4-91">
          <mxGeometry relative="1" as="geometry">
            <mxPoint x="155" y="-284" as="sourcePoint" />
            <mxPoint x="-61" y="-162" as="targetPoint" />
          </mxGeometry>
        </mxCell>
        <mxCell id="d0AiPpgVXNXdEPE5czj4-91" value="" style="ellipse;whiteSpace=wrap;html=1;align=center;aspect=fixed;fillColor=none;strokeColor=none;resizable=0;perimeter=centerPerimeter;rotatable=0;allowArrows=0;points=[];outlineConnect=1;" vertex="1" parent="1">
          <mxGeometry x="-16" y="-151" width="10" height="10" as="geometry" />
        </mxCell>
        <mxCell id="d0AiPpgVXNXdEPE5czj4-121" value="" style="rounded=0;orthogonalLoop=1;jettySize=auto;html=1;endArrow=halfCircle;endFill=0;endSize=6;strokeWidth=1;sketch=0;fontSize=12;curved=1;exitX=1.002;exitY=0.862;exitDx=0;exitDy=0;exitPerimeter=0;" edge="1" target="d0AiPpgVXNXdEPE5czj4-123" parent="1" source="d0AiPpgVXNXdEPE5czj4-37">
          <mxGeometry relative="1" as="geometry">
            <mxPoint x="414" y="-46" as="sourcePoint" />
          </mxGeometry>
        </mxCell>
        <mxCell id="d0AiPpgVXNXdEPE5czj4-122" value="" style="rounded=0;orthogonalLoop=1;jettySize=auto;html=1;endArrow=oval;endFill=0;sketch=0;sourcePerimeterSpacing=0;targetPerimeterSpacing=0;endSize=10;fontSize=12;curved=1;" edge="1" target="d0AiPpgVXNXdEPE5czj4-123" parent="1">
          <mxGeometry relative="1" as="geometry">
            <mxPoint x="589" y="-64" as="sourcePoint" />
          </mxGeometry>
        </mxCell>
        <mxCell id="d0AiPpgVXNXdEPE5czj4-123" value="" style="ellipse;whiteSpace=wrap;html=1;align=center;aspect=fixed;fillColor=none;strokeColor=none;resizable=0;perimeter=centerPerimeter;rotatable=0;allowArrows=0;points=[];outlineConnect=1;" vertex="1" parent="1">
          <mxGeometry x="169" y="-61" width="10" height="10" as="geometry" />
        </mxCell>
        <mxCell id="d0AiPpgVXNXdEPE5czj4-128" value="" style="rounded=0;orthogonalLoop=1;jettySize=auto;html=1;endArrow=halfCircle;endFill=0;endSize=6;strokeWidth=1;sketch=0;fontSize=12;curved=1;exitX=1;exitY=0.5;exitDx=0;exitDy=0;" edge="1" target="d0AiPpgVXNXdEPE5czj4-130" parent="1" source="d0AiPpgVXNXdEPE5czj4-41">
          <mxGeometry relative="1" as="geometry">
            <mxPoint x="-400" y="-254" as="sourcePoint" />
          </mxGeometry>
        </mxCell>
        <mxCell id="d0AiPpgVXNXdEPE5czj4-129" value="" style="rounded=0;orthogonalLoop=1;jettySize=auto;html=1;endArrow=oval;endFill=0;sketch=0;sourcePerimeterSpacing=0;targetPerimeterSpacing=0;endSize=10;fontSize=12;curved=1;entryX=0.594;entryY=0.718;entryDx=0;entryDy=0;entryPerimeter=0;" edge="1" target="d0AiPpgVXNXdEPE5czj4-130" parent="1" source="d0AiPpgVXNXdEPE5czj4-39">
          <mxGeometry relative="1" as="geometry">
            <mxPoint x="-440" y="-254" as="sourcePoint" />
          </mxGeometry>
        </mxCell>
        <mxCell id="d0AiPpgVXNXdEPE5czj4-130" value="" style="ellipse;whiteSpace=wrap;html=1;align=center;aspect=fixed;fillColor=none;strokeColor=none;resizable=0;perimeter=centerPerimeter;rotatable=0;allowArrows=0;points=[];outlineConnect=1;" vertex="1" parent="1">
          <mxGeometry x="-459" y="-263" width="10" height="10" as="geometry" />
        </mxCell>
        <mxCell id="d0AiPpgVXNXdEPE5czj4-131" value="" style="html=1;verticalAlign=bottom;labelBackgroundColor=none;endArrow=oval;endFill=0;endSize=8;rounded=0;fontSize=12;curved=1;" edge="1" parent="1" source="d0AiPpgVXNXdEPE5czj4-81" target="d0AiPpgVXNXdEPE5czj4-83">
          <mxGeometry width="160" relative="1" as="geometry">
            <mxPoint x="-205" y="235" as="sourcePoint" />
            <mxPoint x="11" y="205" as="targetPoint" />
          </mxGeometry>
        </mxCell>
        <mxCell id="d0AiPpgVXNXdEPE5czj4-83" value="" style="ellipse;whiteSpace=wrap;html=1;align=center;aspect=fixed;fillColor=none;strokeColor=none;resizable=0;perimeter=centerPerimeter;rotatable=0;allowArrows=0;points=[];outlineConnect=1;" vertex="1" parent="1">
          <mxGeometry x="-19" y="203" width="10" height="10" as="geometry" />
        </mxCell>
        <mxCell id="d0AiPpgVXNXdEPE5czj4-135" value="" style="rounded=0;orthogonalLoop=1;jettySize=auto;html=1;endArrow=halfCircle;endFill=0;endSize=6;strokeWidth=1;sketch=0;fontSize=12;curved=1;exitX=1;exitY=0.5;exitDx=0;exitDy=0;" edge="1" target="d0AiPpgVXNXdEPE5czj4-137" parent="1" source="d0AiPpgVXNXdEPE5czj4-42">
          <mxGeometry relative="1" as="geometry">
            <mxPoint x="-537" y="-462" as="sourcePoint" />
          </mxGeometry>
        </mxCell>
        <mxCell id="d0AiPpgVXNXdEPE5czj4-136" value="" style="rounded=0;orthogonalLoop=1;jettySize=auto;html=1;endArrow=oval;endFill=0;sketch=0;sourcePerimeterSpacing=0;targetPerimeterSpacing=0;endSize=10;fontSize=12;curved=1;entryX=0.422;entryY=0.33;entryDx=0;entryDy=0;entryPerimeter=0;exitX=0.075;exitY=0.628;exitDx=0;exitDy=0;exitPerimeter=0;" edge="1" target="d0AiPpgVXNXdEPE5czj4-137" parent="1" source="d0AiPpgVXNXdEPE5czj4-44">
          <mxGeometry relative="1" as="geometry">
            <mxPoint x="-462" y="-470" as="sourcePoint" />
          </mxGeometry>
        </mxCell>
        <mxCell id="d0AiPpgVXNXdEPE5czj4-137" value="" style="ellipse;whiteSpace=wrap;html=1;align=center;aspect=fixed;fillColor=none;strokeColor=none;resizable=0;perimeter=centerPerimeter;rotatable=0;allowArrows=0;points=[];outlineConnect=1;" vertex="1" parent="1">
          <mxGeometry x="-469" y="-480" width="10" height="10" as="geometry" />
        </mxCell>
      </root>
    </mxGraphModel>
  </diagram>
</mxfile>
